<svg xmlns="http://www.w3.org/2000/svg" xmlns:xlink="http://www.w3.org/1999/xlink" width="551.965" height="343.171" viewBox="0 0 551.965 343.171"><defs><style>.a,.f{fill:none;}.b{clip-path:url(#a);}.c{fill:#2014aa;}.c,.e{opacity:0.998;isolation:isolate;}.d{clip-path:url(#b);}.e{fill:url(#c);}.f{stroke:#fff;stroke-miterlimit:10;stroke-width:3px;}</style><clipPath id="a"><path class="a" d="M0,335.439l293.632-162.9L551.965,336.965l-293.632,162.9Z" transform="translate(0 -172.539)"/></clipPath><clipPath id="b"><path class="a" d="M0,304.659l293.632-162.9L551.965,306.185l-293.632,162.9Z" transform="translate(0 -141.759)"/></clipPath><linearGradient id="c" y1="0.5" x2="1" y2="0.5" gradientUnits="objectBoundingBox"><stop offset="0" stop-color="#7272f3"/><stop offset="1" stop-color="#6251ff"/></linearGradient></defs><g transform="translate(0 -1)"><g transform="translate(0 16.844)"><g class="b"><g transform="translate(162.037 99.196)"><g transform="translate(6.136)"><path class="c" d="M394.353,466.2l-93.769,12.715c-12.949,1.756-25.912-3.072-28.958-10.78s4.982-15.387,17.925-17.142l93.769-12.713c12.946-1.756,25.912,3.071,28.961,10.781S407.3,464.448,394.353,466.2Z" transform="translate(-270.981 -350.094)"/><path class="c" d="M547.289,398.488h0a31.662,31.662,0,0,1-10.8,3.442,39.989,39.989,0,0,1-12.659-.257c-6.031-1.087-11.152-3.577-14.18-6.894-3.127-3.419-3.825-7.4-1.935-11.014l15.748-31.024,40.6-5.5c8.265-1.129,14.832-4.71,17.428-9.5l-27.66,54.489A15.62,15.62,0,0,1,547.289,398.488Zm35.337-65.6h0a9.59,9.59,0,0,0-1.452-4.431A9.431,9.431,0,0,1,582.626,332.89Zm-7.847-10.121a30.079,30.079,0,0,0-7.395-2.774,29.838,29.838,0,0,1,7.4,2.772ZM556.461,319c-1.157.056-2.3.161-3.429.314l-.4.054c1.252-.185,2.53-.308,3.823-.369Z" transform="translate(-360.4 -314.981)"/><path class="c" d="M419.9,354.292l93.769-12.714c12.949-1.755,20.974-9.429,17.926-17.139s-16.011-12.537-28.959-10.783l-93.769,12.715c-12.947,1.755-20.973,9.429-17.929,17.14S406.952,356.048,419.9,354.292Z" transform="translate(-316.247 -313.296)"/></g><path class="c" d="M273.191,454.123a26.724,26.724,0,0,1-5.257-2.417,27.056,27.056,0,0,0,5.256,2.417Zm46.969-31.872h0l-40.6,5.5c-8.251,1.128-14.811,4.7-17.418,9.483l27.65-54.469c2.482-4.862,9.03-8.527,17.344-9.708a39.989,39.989,0,0,1,12.659.257c6.031,1.087,11.152,3.577,14.18,6.894,3.127,3.419,3.825,7.4,1.935,11.013l-15.744,31.024Zm-58.686,22.223h0a8.97,8.97,0,0,1-.379-1.508A9.495,9.495,0,0,0,261.474,444.475Z" transform="translate(-261.095 -330.83)"/></g></g></g><g transform="translate(0 0)"><g class="d" transform="translate(0 1)"><g transform="translate(162.037 99.196)"><g transform="translate(6.136)"><path class="e" d="M394.353,435.423l-93.769,12.715c-12.949,1.755-25.912-3.072-28.958-10.78s4.982-15.387,17.925-17.142L383.321,407.5c12.946-1.755,25.912,3.072,28.961,10.782S407.3,433.668,394.353,435.423Z" transform="translate(-270.981 -319.314)"/><path class="e" d="M547.289,367.708h0a31.631,31.631,0,0,1-10.8,3.442,39.969,39.969,0,0,1-12.659-.256c-6.031-1.087-11.152-3.577-14.18-6.894-3.127-3.419-3.825-7.4-1.935-11.013l15.748-31.024,40.6-5.5c8.265-1.129,14.832-4.71,17.428-9.5l-27.66,54.489A15.614,15.614,0,0,1,547.289,367.708Zm35.337-65.6h0a9.59,9.59,0,0,0-1.452-4.431A9.431,9.431,0,0,1,582.626,302.11Zm-7.847-10.121a30.077,30.077,0,0,0-7.395-2.774,29.864,29.864,0,0,1,7.4,2.772Zm-18.318-3.766c-1.157.056-2.3.161-3.429.314l-.4.054c1.252-.185,2.53-.308,3.823-.369Z" transform="translate(-360.4 -284.201)"/><path class="e" d="M419.9,323.512,513.668,310.8c12.949-1.755,20.974-9.429,17.926-17.139s-16.011-12.537-28.959-10.783l-93.769,12.715c-12.947,1.755-20.973,9.429-17.929,17.14S406.952,325.268,419.9,323.512Z" transform="translate(-316.247 -282.516)"/></g><path class="e" d="M273.191,423.343a26.679,26.679,0,0,1-5.257-2.417,27.064,27.064,0,0,0,5.256,2.417Zm46.969-31.871h0l-40.6,5.5c-8.251,1.128-14.811,4.7-17.418,9.483l27.65-54.469c2.482-4.862,9.03-8.526,17.344-9.708a39.991,39.991,0,0,1,12.659.257c6.031,1.087,11.152,3.577,14.18,6.894,3.127,3.42,3.825,7.4,1.935,11.014l-15.744,31.024Zm-58.686,22.223h0a8.975,8.975,0,0,1-.379-1.509A9.481,9.481,0,0,0,261.474,413.695Z" transform="translate(-261.095 -300.05)"/></g></g></g><g transform="translate(210.401 39.542)"><path class="f" d="M357.342,304.79a.015.015,0,0,1-.015.015,1.23,1.23,0,0,1-.137.44l-13.075,24.239-35.372,5.248c-11.239,1.653-17.974,7.675-15.259,13.621l.213.41c1.593,2.776,5.127,4.96,9.586,6.264-7.918-2.275-12.226-7.144-9.92-11.952.015-.015.015-.03.03-.045l.2-.409,23.07-42.774c3.155-5.9,14.638-9.435,26-8.009C353.535,293.293,360.118,299.087,357.342,304.79Z" transform="translate(-292.744 -255.686)"/><path class="f" d="M400.77,364.12l-81.664,12.059c-.2.031-.41.061-.607.076a40.909,40.909,0,0,1-10.284.031c-.288-.046-.576-.076-.85-.122-.152-.03-.3-.046-.455-.076-.258-.03-.516-.091-.758-.137-.956-.2-1.881-.409-2.776-.667-4.459-1.3-7.994-3.489-9.586-6.264l-.213-.41c-2.715-5.946,4.02-11.968,15.259-13.621l35.372-5.248,46.278-6.856c10.77-1.669,22.1,1.547,25.316,7.19l.212.409C418.76,356.43,412.025,362.467,400.77,364.12Z" transform="translate(-292.836 -275.943)"/><path class="f" d="M319.242,398.673a41.014,41.014,0,0,0,9.705-.084A37.354,37.354,0,0,1,319.242,398.673Z" transform="translate(-303.285 -298.278)"/><path class="f" d="M316.87,398.438c.466.075.951.117,1.428.175-.193-.022-.386-.029-.579-.053C317.431,398.514,317.143,398.484,316.87,398.438Z" transform="translate(-302.341 -298.217)"/><path class="f" d="M567.945,248.941,544.859,291.73c-3.186,5.885-14.668,9.389-26.014,7.963l-.773-.106c-10.769-1.684-16.9-7.614-13.727-13.257l13.136-24.254,35.3-5.233c11.255-1.654,18-7.66,15.289-13.621a9.774,9.774,0,0,0-2.761-3.292C568.6,242.479,569.765,245.771,567.945,248.941Z" transform="translate(-376.587 -235.163)"/><path class="f" d="M514.1,253.694l-35.3,5.233-46.324,6.856a7.579,7.579,0,0,1-.849.076c-10.876,1.472-21.963-1.972-24.74-7.675-2.73-5.961,4.035-11.983,15.29-13.621l81.634-12.1.774-.106c.03,0,.061-.016.106-.016,6.917-.91,13.909.152,18.793,2.533q.592.3,1.138.591c.243.137.485.273.728.44.273.167.531.334.773.516l.5.364a9.775,9.775,0,0,1,2.76,3.292C532.107,246.034,525.358,252.041,514.1,253.694Z" transform="translate(-337.913 -232.014)"/></g></g></svg>